<svg version="1.1" id="Layer_1" xmlns="http://www.w3.org/2000/svg" xmlns:xlink="http://www.w3.org/1999/xlink" x="0px" y="0px"
	 width="100%" viewBox="0 0 2508 627" enable-background="new 0 0 2508 627" xml:space="preserve">
<path fill="#FEFEFE" opacity="1.000000" stroke="none" 
	d="
M2391.000000,628.000000 
	C1594.000122,628.000000 797.500305,628.000000 1.000321,628.000000 
	C1.000214,419.000183 1.000214,210.000366 1.000107,1.000405 
	C836.999695,1.000270 1672.999390,1.000270 2508.999268,1.000135 
	C2508.999512,209.999634 2508.999512,418.999268 2508.999756,627.999451 
	C2469.833252,628.000000 2430.666748,628.000000 2391.000000,628.000000 
M1096.059937,411.702515 
	C1072.376587,411.790375 1048.693115,411.878235 1024.282837,411.718903 
	C1023.119629,411.716736 1021.956421,411.707886 1020.793274,411.713501 
	C1014.333740,411.744751 1014.315369,411.745880 1014.286377,418.390686 
	C1014.257385,425.038025 1014.470337,431.694031 1014.189514,438.329834 
	C1014.022766,442.269714 1015.286255,443.445770 1019.276672,443.410126 
	C1041.045532,443.215637 1062.817139,443.342804 1084.587524,443.284668 
	C1093.715576,443.260315 1102.843018,443.052277 1112.802124,443.044861 
	C1151.802246,438.757294 1176.456787,397.349884 1161.026611,361.397247 
	C1150.711792,337.363373 1130.796753,326.815399 1105.769043,325.136322 
	C1093.498657,324.313080 1081.127686,325.018341 1068.802612,324.956635 
	C1066.318115,324.944214 1063.772705,324.878723 1061.361816,324.351257 
	C1045.105347,320.794769 1038.103760,308.256500 1042.432373,289.660004 
	C1042.461182,289.492310 1042.490112,289.324585 1042.929688,288.655975 
	C1044.953613,285.772217 1046.977661,282.888458 1049.663330,279.761902 
	C1055.008667,275.334442 1061.127686,273.423859 1068.086182,273.450256 
	C1094.525024,273.550568 1120.964966,273.402527 1147.403198,273.557831 
	C1151.517700,273.582001 1152.964600,272.421051 1152.772461,268.219238 
	C1152.453491,261.249603 1152.567383,254.253006 1152.715088,247.272339 
	C1152.783447,244.046753 1151.381348,242.827087 1148.347290,242.839249 
	C1128.235962,242.919891 1108.124756,242.972336 1087.093750,242.830154 
	C1077.940063,242.781738 1068.785767,242.650909 1059.633301,242.734314 
	C1056.830200,242.759857 1053.975586,243.125519 1051.241089,243.754898 
	C1020.133545,250.914719 1001.120300,282.005890 1008.627686,313.318817 
	C1014.677124,338.550476 1037.830933,356.838074 1064.400391,357.204620 
	C1077.047974,357.379150 1089.711792,356.950134 1102.345581,357.412292 
	C1114.620239,357.861267 1124.717773,362.789032 1130.010376,374.581238 
	C1136.185547,388.340790 1129.611328,404.090698 1113.452759,410.271881 
	C1112.976685,410.531677 1112.500488,410.791504 1111.317993,411.010071 
	C1110.881104,411.173187 1110.444336,411.336334 1109.090210,411.457611 
	C1105.051880,411.606323 1101.013672,411.755035 1096.059937,411.702515 
M2005.260864,442.603821 
	C2006.522949,442.884613 2007.783447,443.399078 2009.047485,443.408020 
	C2016.877930,443.463409 2024.712524,443.260834 2032.538574,443.447662 
	C2036.254517,443.536407 2037.418091,442.244690 2037.383179,438.521027 
	C2037.211304,420.194885 2037.238281,401.866150 2037.310181,383.538757 
	C2037.341431,375.554779 2036.952148,367.480621 2037.984009,359.608582 
	C2039.822876,345.578400 2047.230469,335.022614 2060.661621,329.696075 
	C2074.428711,324.236328 2087.546387,325.968201 2099.270020,335.208923 
	C2109.796143,343.505768 2113.307129,355.018951 2113.318115,367.928802 
	C2113.338135,391.254547 2113.485840,414.581726 2113.243896,437.904816 
	C2113.193604,442.767944 2114.932861,443.777008 2119.295654,443.563477 
	C2126.278076,443.221710 2133.300293,443.135040 2140.279297,443.480042 
	C2144.730957,443.700073 2145.947510,442.254364 2145.915039,437.870148 
	C2145.736816,413.878967 2145.905518,389.885437 2145.860107,365.892914 
	C2145.796387,332.205414 2124.974365,306.391663 2091.949219,299.769348 
	C2067.263672,294.819427 2044.499634,298.961761 2025.295410,316.398376 
	C2014.118408,326.546753 2008.174438,339.546234 2004.838989,353.925018 
	C2003.381470,352.216888 2001.923950,350.508728 2000.466431,348.800598 
	C1999.972168,348.933075 1999.477905,349.065582 1998.983765,349.198059 
	C1998.655762,350.952972 1998.059082,352.705566 1998.044189,354.463135 
	C1997.954834,364.933929 1998.000000,375.405914 1998.000000,385.877472 
	C1998.000000,399.510803 1998.013184,413.144135 1997.989136,426.777405 
	C1997.984131,429.595978 1998.174683,432.472626 1997.696045,435.221619 
	C1996.344116,442.986176 1997.391357,444.099976 2005.260864,442.603821 
M623.274658,439.852264 
	C624.086426,440.999237 624.875854,443.125000 625.713379,443.144104 
	C635.803711,443.374420 645.901123,443.293182 656.802307,443.293182 
	C656.802307,432.914825 656.754456,423.151825 656.814819,413.389526 
	C656.885559,401.943237 657.050537,390.497498 658.084839,379.157654 
	C675.406189,379.139771 692.757996,379.729187 710.036560,378.860138 
	C719.348999,378.391754 729.057800,376.748383 737.683289,373.343719 
	C765.702209,362.284241 781.110901,334.017700 777.429077,302.638763 
	C773.801208,271.718964 751.902710,248.023865 720.707214,244.395630 
	C701.804321,242.197113 682.398376,242.108643 663.397766,243.507645 
	C637.670898,245.401901 623.143005,263.217499 623.184875,289.166168 
	C623.254822,332.469482 623.193970,375.773010 623.217590,419.076447 
	C623.221252,425.727905 623.382507,432.379333 623.274658,439.852264 
M941.860657,369.671021 
	C937.537048,394.586700 916.483826,412.539703 891.721436,412.647430 
	C868.468872,412.748596 844.882690,396.696991 841.596985,369.966064 
	C841.487122,367.656433 841.292419,365.347198 841.280701,363.037079 
	C841.180847,343.353912 841.114197,323.670563 841.272461,303.126068 
	C841.196411,300.754791 841.120422,298.383514 841.238892,295.090942 
	C841.171997,288.389618 841.105103,281.688263 841.279541,274.140411 
	C841.202026,272.097992 841.124512,270.055573 841.244080,267.093353 
	C841.184998,261.388092 841.125916,255.682861 841.311401,249.170578 
	C841.212280,247.781448 841.113159,246.392319 841.108093,244.472046 
	C840.994690,244.332550 840.881287,244.193039 840.398071,243.296005 
	C830.749451,243.178741 821.099365,243.125992 811.453003,242.909225 
	C808.075195,242.833313 807.742676,244.736023 807.747620,247.389496 
	C807.824890,288.885376 807.316040,330.391968 808.128784,371.872833 
	C808.538574,392.789795 816.881958,411.183289 833.144470,424.988800 
	C853.440308,442.218170 877.127319,448.201019 903.465515,445.201447 
	C943.585083,440.632385 974.561462,408.529144 975.376282,368.310028 
	C976.192993,327.997742 975.433899,287.654205 975.471069,247.324448 
	C975.474426,243.651276 973.901062,242.851593 970.617004,242.922165 
	C962.787964,243.090408 954.952087,242.920990 947.120605,243.015991 
	C945.774170,243.032318 944.435425,243.679840 942.468933,244.599091 
	C942.401062,245.923279 942.274841,247.247406 942.273926,248.571640 
	C942.245911,288.707458 942.230286,328.843292 941.860657,369.671021 
M1763.898804,363.900879 
	C1763.893921,388.838257 1763.963867,413.776154 1763.803711,438.712524 
	C1763.779785,442.442932 1764.821289,443.656464 1768.577881,443.510925 
	C1776.215332,443.215057 1783.872437,443.222107 1791.515869,443.377136 
	C1794.965698,443.447083 1796.161865,442.282776 1796.141602,438.787445 
	C1795.992676,413.188599 1796.002197,387.588806 1796.309692,361.440094 
	C1796.241455,359.399017 1796.173218,357.357971 1796.759277,355.082611 
	C1797.138672,354.046082 1797.517944,353.009552 1798.323730,351.421356 
	C1804.328613,335.076965 1817.670288,326.009491 1834.781494,326.643402 
	C1850.475220,327.224762 1863.040649,337.312347 1867.428833,353.550751 
	C1868.798462,358.618896 1869.248169,364.062683 1869.289185,369.340942 
	C1869.469116,392.503540 1869.400513,415.668823 1869.270508,438.832275 
	C1869.251587,442.202148 1870.084473,443.639862 1873.724121,443.522583 
	C1881.549561,443.270386 1889.390747,443.237610 1897.217773,443.430145 
	C1900.779419,443.517761 1901.851685,442.184753 1901.796875,438.785645 
	C1901.649048,429.622498 1901.833008,420.454529 1901.747681,411.289734 
	C1901.578613,393.135773 1902.745728,374.830444 1900.831055,356.857208 
	C1894.600098,298.370850 1835.992432,284.914795 1800.195190,304.778229 
	C1792.529419,309.031860 1786.036621,315.399567 1778.937500,320.843964 
	C1763.386597,300.311188 1741.248901,293.893890 1715.778809,297.151886 
	C1680.750610,301.632477 1655.192505,332.836945 1657.782227,367.913269 
	C1657.782227,392.927032 1657.782227,417.940826 1657.782227,443.394196 
	C1667.933350,443.394196 1677.384521,443.426147 1686.834717,443.337189 
	C1687.642822,443.329590 1688.443359,442.517548 1689.828125,441.459534 
	C1689.873535,416.970886 1689.870605,392.481964 1690.014771,367.993896 
	C1690.037231,364.190460 1690.398071,360.321198 1691.174561,356.601868 
	C1694.354492,341.369690 1706.186279,329.788452 1720.948853,327.143005 
	C1735.266479,324.577271 1749.989380,330.443146 1757.096436,342.919220 
	C1760.541748,348.967255 1761.817993,356.250854 1763.898804,363.900879 
M593.039612,346.461060 
	C593.036621,344.128265 593.132935,341.790436 593.015381,339.463409 
	C591.637695,312.187988 583.324951,287.299988 563.001221,268.608612 
	C528.233521,236.633270 487.115906,231.512604 444.362366,247.995438 
	C403.963470,263.570496 384.036346,296.033386 382.167786,338.728180 
	C380.557068,375.530975 393.514130,406.674255 424.809174,427.764740 
	C451.434448,445.708221 481.263733,449.475616 512.413025,442.881744 
	C558.895630,433.042114 592.031555,393.672607 593.039612,346.461060 
M1285.895386,359.292450 
	C1274.870972,386.981110 1263.846558,414.669769 1252.396118,443.428558 
	C1263.640015,443.428558 1273.581543,443.283905 1283.514893,443.505127 
	C1287.107300,443.585114 1288.879395,442.365570 1290.068604,438.964966 
	C1294.241333,427.032379 1298.808105,415.237640 1302.986206,403.306885 
	C1304.025269,400.339996 1305.347412,399.201477 1308.620605,399.213013 
	C1339.775391,399.322998 1370.931030,399.287598 1402.085938,399.153015 
	C1405.050049,399.140228 1406.406738,399.942322 1407.435425,402.838745 
	C1411.830566,415.214569 1416.644287,427.441498 1421.067139,439.807953 
	C1422.097656,442.689423 1423.596558,443.630646 1426.513428,443.570648 
	C1435.174072,443.392487 1443.843262,443.254395 1452.500732,443.458252 
	C1457.231567,443.569672 1457.357788,441.763062 1455.878906,438.075989 
	C1450.803833,425.422882 1445.904541,412.699127 1440.951538,399.997192 
	C1423.067261,354.133850 1405.260254,308.240143 1387.262939,262.421234 
	C1381.934937,248.856934 1370.300659,241.130356 1356.390503,241.172089 
	C1341.832153,241.215744 1329.359497,249.703964 1324.077515,263.029663 
	C1311.451660,294.881927 1298.779907,326.716095 1285.895386,359.292450 
M1470.929321,365.645996 
	C1470.883179,369.642303 1470.563477,373.657349 1470.835327,377.631897 
	C1472.570557,403.003540 1483.039185,423.344116 1505.477661,436.517609 
	C1516.773804,443.149475 1529.230957,445.939331 1542.187988,446.586975 
	C1586.401611,448.796722 1621.362549,420.126343 1622.550415,376.209076 
	C1623.779663,330.762085 1622.833862,285.256927 1622.932007,239.777435 
	C1622.939819,236.181961 1621.450195,235.171143 1618.122559,235.237396 
	C1610.795532,235.383255 1603.454956,235.485687 1596.136475,235.193161 
	C1591.706787,235.016129 1590.429932,236.631638 1590.475586,240.966644 
	C1590.685425,260.955811 1590.596924,280.948090 1590.611816,300.939270 
	C1590.617188,308.170166 1590.612793,315.401062 1590.612793,322.631927 
	C1588.841064,321.896423 1588.112305,320.888947 1587.381714,319.882812 
	C1579.049438,308.407043 1567.844360,301.510284 1553.928589,299.004059 
	C1511.582886,291.377472 1473.723022,321.372925 1470.929321,365.645996 
M1937.048340,321.500305 
	C1937.048340,361.937286 1937.048340,402.374268 1937.048340,443.431335 
	C1946.407837,443.431335 1955.200317,443.224213 1963.975830,443.520721 
	C1968.220459,443.664124 1969.333496,442.201935 1969.303467,438.099396 
	C1969.127441,414.110779 1969.203857,390.120270 1969.197632,366.130402 
	C1969.192383,345.639038 1969.136719,325.147430 1969.237427,304.656586 
	C1969.254761,301.129181 1968.326294,299.479584 1964.441895,299.612823 
	C1956.786499,299.875427 1949.115845,299.850983 1941.455200,299.719727 
	C1938.267334,299.665100 1936.911133,300.674255 1937.020874,304.009430 
	C1937.201294,309.500793 1937.052979,315.002991 1937.048340,321.500305 
M1933.895386,264.459320 
	C1934.731567,265.694092 1935.457153,267.023621 1936.421509,268.148346 
	C1943.102295,275.939545 1953.370239,278.190979 1962.667480,273.966583 
	C1971.415649,269.991638 1976.526245,260.897125 1975.194458,251.674133 
	C1973.669312,241.113190 1966.917847,234.434616 1956.259399,232.746414 
	C1940.815186,230.300217 1926.011963,246.745728 1933.895386,264.459320 
z"/>
<path fill="#0F1A2D" opacity="1.000000" stroke="none" 
	d="
M593.039307,346.951813 
	C592.031555,393.672607 558.895630,433.042114 512.413025,442.881744 
	C481.263733,449.475616 451.434448,445.708221 424.809174,427.764740 
	C393.514130,406.674255 380.557068,375.530975 382.167786,338.728180 
	C384.036346,296.033386 403.963470,263.570496 444.362366,247.995438 
	C487.115906,231.512604 528.233521,236.633270 563.001221,268.608612 
	C583.324951,287.299988 591.637695,312.187988 593.015381,339.463409 
	C593.132935,341.790436 593.036621,344.128265 593.039307,346.951813 
M429.921448,385.541199 
	C457.408844,419.212708 509.680359,422.300964 538.802917,391.974091 
	C559.295288,370.634277 564.603638,339.947083 552.515320,312.703949 
	C541.028809,286.817139 515.604004,270.991669 485.934540,271.999908 
	C458.123993,272.944946 436.124969,284.836670 423.750427,310.225128 
	C411.293640,335.782227 413.068298,361.177887 429.921448,385.541199 
z"/>
<path fill="#0F1A2E" opacity="1.000000" stroke="none" 
	d="
M1796.105103,355.316895 
	C1796.173218,357.357971 1796.241455,359.399017 1795.744141,361.817291 
	C1794.787231,364.032410 1794.061768,365.869202 1794.055664,367.708435 
	C1793.978271,390.845978 1793.941772,413.984253 1794.071777,437.121338 
	C1794.091553,440.645569 1793.394043,442.275574 1789.431641,442.086304 
	C1782.954224,441.776886 1776.448486,441.872070 1769.961304,442.044891 
	C1766.899780,442.126495 1765.751587,441.039246 1765.953735,438.005798 
	C1766.141479,435.188477 1765.994507,432.348877 1765.994507,429.519073 
	C1765.994873,408.545227 1766.033325,387.571075 1765.886963,366.598267 
	C1765.879272,365.494263 1768.071777,362.404938 1764.076294,362.975037 
	C1761.817993,356.250854 1760.541748,348.967255 1757.096436,342.919220 
	C1749.989380,330.443146 1735.266479,324.577271 1720.948853,327.143005 
	C1706.186279,329.788452 1694.354492,341.369690 1691.174561,356.601868 
	C1690.398071,360.321198 1690.037231,364.190460 1690.014771,367.993896 
	C1689.870605,392.481964 1689.873535,416.970886 1689.053711,441.743225 
	C1680.303833,442.021912 1672.314331,441.732819 1664.358032,442.120941 
	C1659.759399,442.345245 1658.867432,440.680603 1658.907349,436.447327 
	C1659.107666,415.180847 1659.022339,393.911316 1658.950684,372.643158 
	C1658.944336,370.758179 1658.313354,368.875275 1657.972534,366.991425 
	C1655.192505,332.836945 1680.750610,301.632477 1715.778809,297.151886 
	C1741.248901,293.893890 1763.386597,300.311188 1778.937500,320.843964 
	C1786.036621,315.399567 1792.529419,309.031860 1800.195190,304.778229 
	C1835.992432,284.914795 1894.600098,298.370850 1900.831055,356.857208 
	C1902.745728,374.830444 1901.578613,393.135773 1901.747681,411.289734 
	C1901.833008,420.454529 1901.649048,429.622498 1901.796875,438.785645 
	C1901.851685,442.184753 1900.779419,443.517761 1897.217773,443.430145 
	C1889.390747,443.237610 1881.549561,443.270386 1873.724121,443.522583 
	C1870.084473,443.639862 1869.251587,442.202148 1869.270508,438.832275 
	C1869.400513,415.668823 1869.469116,392.503540 1869.289185,369.340942 
	C1869.248169,364.062683 1868.798462,358.618896 1867.428833,353.550751 
	C1863.040649,337.312347 1850.475220,327.224762 1834.781494,326.643402 
	C1817.670288,326.009491 1804.328613,335.076965 1797.754639,351.783173 
	C1796.825439,353.202301 1796.465332,354.259613 1796.105103,355.316895 
z"/>
<path fill="#0F1A2E" opacity="1.000000" stroke="none" 
	d="
M1286.010986,358.924988 
	C1298.779907,326.716095 1311.451660,294.881927 1324.077515,263.029663 
	C1329.359497,249.703964 1341.832153,241.215744 1356.390503,241.172089 
	C1370.300659,241.130356 1381.934937,248.856934 1387.262939,262.421234 
	C1405.260254,308.240143 1423.067261,354.133850 1440.951538,399.997192 
	C1445.904541,412.699127 1450.803833,425.422882 1455.878906,438.075989 
	C1457.357788,441.763062 1457.231567,443.569672 1452.500732,443.458252 
	C1443.843262,443.254395 1435.174072,443.392487 1426.513428,443.570648 
	C1423.596558,443.630646 1422.097656,442.689423 1421.067139,439.807953 
	C1416.644287,427.441498 1411.830566,415.214569 1407.435425,402.838745 
	C1406.406738,399.942322 1405.050049,399.140228 1402.085938,399.153015 
	C1370.931030,399.287598 1339.775391,399.322998 1308.620605,399.213013 
	C1305.347412,399.201477 1304.025269,400.339996 1302.986206,403.306885 
	C1298.808105,415.237640 1294.241333,427.032379 1290.068604,438.964966 
	C1288.879395,442.365570 1287.107300,443.585114 1283.514893,443.505127 
	C1273.581543,443.283905 1263.640015,443.428558 1252.396118,443.428558 
	C1263.846558,414.669769 1274.870972,386.981110 1286.010986,358.924988 
M1316.249634,369.736481 
	C1317.224854,370.151367 1318.199097,370.925629 1319.175537,370.928650 
	C1343.422241,371.003296 1367.669312,371.015381 1391.915771,370.931732 
	C1392.840576,370.928528 1393.761841,369.861603 1394.667236,368.443146 
	C1387.731689,350.597382 1380.790283,332.753906 1373.863281,314.904846 
	C1370.488647,306.209290 1367.186768,297.485229 1363.757690,288.811340 
	C1362.401978,285.382233 1360.248901,282.718964 1356.114258,282.635254 
	C1351.862061,282.549164 1349.338013,285.003265 1347.678833,288.560394 
	C1346.694824,290.670074 1345.898315,292.868439 1345.045898,295.038086 
	C1335.366333,319.676758 1325.692383,344.317627 1316.249634,369.736481 
z"/>
<path fill="#0E192D" opacity="1.000000" stroke="none" 
	d="
M1113.997437,410.284424 
	C1129.611328,404.090698 1136.185547,388.340790 1130.010376,374.581238 
	C1124.717773,362.789032 1114.620239,357.861267 1102.345581,357.412292 
	C1089.711792,356.950134 1077.047974,357.379150 1064.400391,357.204620 
	C1037.830933,356.838074 1014.677124,338.550476 1008.627686,313.318817 
	C1001.120300,282.005890 1020.133545,250.914719 1051.241089,243.754898 
	C1053.975586,243.125519 1056.830200,242.759857 1059.633301,242.734314 
	C1068.785767,242.650909 1077.940063,242.781738 1087.852051,243.221985 
	C1091.084961,243.742355 1093.558228,243.936935 1096.034546,243.988754 
	C1112.957886,244.342926 1129.883911,244.603394 1146.802246,245.116699 
	C1148.222046,245.159775 1150.758789,246.787231 1150.800415,247.762909 
	C1151.131714,255.527100 1150.985229,263.311707 1150.985229,270.771820 
	C1146.564697,271.215149 1142.654541,271.934082 1138.742065,271.947449 
	C1110.052979,272.045532 1081.363281,271.974976 1052.674316,272.064941 
	C1050.757446,272.070953 1048.843628,272.955994 1047.774170,273.221863 
	C1048.331787,276.303558 1048.666748,278.154114 1049.001587,280.004700 
	C1046.977661,282.888458 1044.953613,285.772217 1042.508911,288.907654 
	C1041.958984,289.213806 1041.829956,289.268311 1041.700806,289.322815 
	C1041.818726,289.549713 1041.936646,289.776581 1042.054565,290.003418 
	C1038.103760,308.256500 1045.105347,320.794769 1061.361816,324.351257 
	C1063.772705,324.878723 1066.318115,324.944214 1068.802612,324.956635 
	C1081.127686,325.018341 1093.498657,324.313080 1105.769043,325.136322 
	C1130.796753,326.815399 1150.711792,337.363373 1161.026611,361.397247 
	C1176.456787,397.349884 1151.802246,438.757294 1112.083740,442.703949 
	C1109.554077,442.242035 1107.742920,442.017456 1105.931396,442.015686 
	C1082.145020,441.992523 1058.358643,442.001038 1034.572266,442.001007 
	C1029.748535,442.000977 1024.916260,442.153503 1020.106445,441.893799 
	C1018.819397,441.824310 1016.578430,440.569946 1016.514954,439.728363 
	C1016.083191,434.003082 1016.049622,428.243164 1016.016113,422.493652 
	C1015.969482,414.497070 1016.896179,413.571014 1025.487305,412.986389 
	C1049.644531,412.992523 1073.335205,412.999298 1097.483887,413.003754 
	C1101.963623,412.500732 1105.985596,412.000061 1110.007446,411.499451 
	C1110.444336,411.336334 1110.881104,411.173187 1111.826172,411.246216 
	C1112.888672,411.083038 1113.443115,410.683746 1113.997437,410.284424 
z"/>
<path fill="#0F1A2D" opacity="1.000000" stroke="none" 
	d="
M841.044373,296.012238 
	C841.120422,298.383514 841.196411,300.754791 840.847656,303.843262 
	C840.308044,304.869232 840.093201,305.177795 840.092529,305.486816 
	C840.050476,326.202362 840.002075,346.917999 840.065796,367.633301 
	C840.069092,368.721130 841.036133,369.806000 841.554504,370.892242 
	C844.882690,396.696991 868.468872,412.748596 891.721436,412.647430 
	C916.483826,412.539703 937.537048,394.586700 942.411377,369.205688 
	C943.304626,367.042175 943.943787,365.344421 943.946289,363.645752 
	C944.002136,325.517670 943.999817,287.389465 943.949158,249.261383 
	C943.946838,247.519150 943.391113,245.777649 943.093140,244.035797 
	C944.435425,243.679840 945.774170,243.032318 947.120605,243.015991 
	C954.952087,242.920990 962.787964,243.090408 970.617004,242.922165 
	C973.901062,242.851593 975.474426,243.651276 975.471069,247.324448 
	C975.433899,287.654205 976.192993,327.997742 975.376282,368.310028 
	C974.561462,408.529144 943.585083,440.632385 903.465515,445.201447 
	C877.127319,448.201019 853.440308,442.218170 833.144470,424.988800 
	C816.881958,411.183289 808.538574,392.789795 808.128784,371.872833 
	C807.316040,330.391968 807.824890,288.885376 807.747620,247.389496 
	C807.742676,244.736023 808.075195,242.833313 811.453003,242.909225 
	C821.099365,243.125992 830.749451,243.178741 840.461670,243.796768 
	C840.688171,244.532745 840.851135,244.767975 841.014099,245.003204 
	C841.113159,246.392319 841.212280,247.781448 840.877319,249.857330 
	C840.644470,256.367096 840.845764,262.190125 841.046997,268.013153 
	C841.124512,270.055573 841.202026,272.097992 840.852112,274.850677 
	C840.631287,282.378052 840.837830,289.195129 841.044373,296.012238 
z"/>
<path fill="#0F1A2D" opacity="1.000000" stroke="none" 
	d="
M1470.958984,365.168579 
	C1473.723022,321.372925 1511.582886,291.377472 1553.928589,299.004059 
	C1567.844360,301.510284 1579.049438,308.407043 1587.381714,319.882812 
	C1588.112305,320.888947 1588.841064,321.896423 1590.612793,322.631927 
	C1590.612793,315.401062 1590.617188,308.170166 1590.611816,300.939270 
	C1590.596924,280.948090 1590.685425,260.955811 1590.475586,240.966644 
	C1590.429932,236.631638 1591.706787,235.016129 1596.136475,235.193161 
	C1603.454956,235.485687 1610.795532,235.383255 1618.122559,235.237396 
	C1621.450195,235.171143 1622.939819,236.181961 1622.932007,239.777435 
	C1622.833862,285.256927 1623.779663,330.762085 1622.550415,376.209076 
	C1621.362549,420.126343 1586.401611,448.796722 1542.187988,446.586975 
	C1529.230957,445.939331 1516.773804,443.149475 1505.477661,436.517609 
	C1483.039185,423.344116 1472.570557,403.003540 1470.835327,377.631897 
	C1470.563477,373.657349 1470.883179,369.642303 1470.958984,365.168579 
M1551.183350,417.021606 
	C1578.934326,413.566589 1595.920776,387.697144 1589.018311,359.401337 
	C1581.269287,327.634308 1542.637817,315.446289 1518.035400,337.006561 
	C1503.936768,349.361847 1499.048218,371.468964 1506.386353,389.685425 
	C1513.571533,407.521729 1530.130737,417.874725 1551.183350,417.021606 
z"/>
<path fill="#0F1B2E" opacity="1.000000" stroke="none" 
	d="
M623.470825,439.030762 
	C623.382507,432.379333 623.221252,425.727905 623.217590,419.076447 
	C623.193970,375.773010 623.254822,332.469482 623.184875,289.166168 
	C623.143005,263.217499 637.670898,245.401901 663.397766,243.507645 
	C682.398376,242.108643 701.804321,242.197113 720.707214,244.395630 
	C751.902710,248.023865 773.801208,271.718964 777.429077,302.638763 
	C781.110901,334.017700 765.702209,362.284241 737.683289,373.343719 
	C729.057800,376.748383 719.348999,378.391754 710.036560,378.860138 
	C692.757996,379.729187 675.406189,379.139771 657.223511,379.185974 
	C655.910339,380.836304 655.074524,382.456207 655.065613,384.080658 
	C654.967712,401.900116 654.917358,419.720978 655.064575,437.539703 
	C655.093445,441.037201 654.021484,442.205231 650.522461,442.075684 
	C644.036011,441.835571 637.524841,441.782928 631.043762,442.081543 
	C627.848206,442.228821 625.394653,441.549347 623.470825,439.030762 
M657.237915,349.928833 
	C658.089233,350.283966 658.939331,350.945526 659.791992,350.948822 
	C676.026123,351.011536 692.260864,351.034454 708.494507,350.923401 
	C709.741821,350.914886 710.981873,349.847809 712.797607,348.944794 
	C735.826172,344.041321 748.495422,324.088745 742.687500,301.474731 
	C738.717712,286.018219 728.048523,277.462799 712.735352,273.021698 
	C712.037415,272.684967 711.340759,272.057556 710.641357,272.054504 
	C697.379211,271.996399 684.116577,271.980896 670.854919,272.079559 
	C669.936584,272.086365 669.025391,273.057190 667.575134,273.966766 
	C661.015564,275.737305 657.886475,280.432434 655.871094,287.231720 
	C655.580444,288.143372 655.038452,289.054474 655.036316,289.966827 
	C654.992676,308.488190 654.977844,327.009888 655.094360,345.530670 
	C655.101868,346.709564 656.224121,347.881470 656.961243,349.058929 
	C656.961243,349.058929 656.938232,349.190338 657.237915,349.928833 
z"/>
<path fill="#101B2E" opacity="1.000000" stroke="none" 
	d="
M2005.539551,354.216583 
	C2008.174438,339.546234 2014.118408,326.546753 2025.295410,316.398376 
	C2044.499634,298.961761 2067.263672,294.819427 2091.949219,299.769348 
	C2124.974365,306.391663 2145.796387,332.205414 2145.860107,365.892914 
	C2145.905518,389.885437 2145.736816,413.878967 2145.915039,437.870148 
	C2145.947510,442.254364 2144.730957,443.700073 2140.279297,443.480042 
	C2133.300293,443.135040 2126.278076,443.221710 2119.295654,443.563477 
	C2114.932861,443.777008 2113.193604,442.767944 2113.243896,437.904816 
	C2113.485840,414.581726 2113.338135,391.254547 2113.318115,367.928802 
	C2113.307129,355.018951 2109.796143,343.505768 2099.270020,335.208923 
	C2087.546387,325.968201 2074.428711,324.236328 2060.661621,329.696075 
	C2047.230469,335.022614 2039.822876,345.578400 2037.984009,359.608582 
	C2036.952148,367.480621 2037.341431,375.554779 2037.310181,383.538757 
	C2037.238281,401.866150 2037.211304,420.194885 2037.383179,438.521027 
	C2037.418091,442.244690 2036.254517,443.536407 2032.538574,443.447662 
	C2024.712524,443.260834 2016.877930,443.463409 2009.047485,443.408020 
	C2007.783447,443.399078 2006.522949,442.884613 2005.042725,441.841492 
	C2004.796509,414.382904 2004.768677,387.686676 2004.870361,360.588440 
	C2005.066162,358.786713 2005.132202,357.386932 2005.381836,355.727356 
	C2005.556763,355.050598 2005.548218,354.633575 2005.539551,354.216583 
z"/>
<path fill="#0E192D" opacity="1.000000" stroke="none" 
	d="
M1937.045898,321.000458 
	C1937.052979,315.002991 1937.201294,309.500793 1937.020874,304.009430 
	C1936.911133,300.674255 1938.267334,299.665100 1941.455200,299.719727 
	C1949.115845,299.850983 1956.786499,299.875427 1964.441895,299.612823 
	C1968.326294,299.479584 1969.254761,301.129181 1969.237427,304.656586 
	C1969.136719,325.147430 1969.192383,345.639038 1969.197632,366.130402 
	C1969.203857,390.120270 1969.127441,414.110779 1969.303467,438.099396 
	C1969.333496,442.201935 1968.220459,443.664124 1963.975830,443.520721 
	C1955.200317,443.224213 1946.407837,443.431335 1937.048340,443.431335 
	C1937.048340,402.374268 1937.048340,361.937286 1937.045898,321.000458 
z"/>
<path fill="#06B480" opacity="1.000000" stroke="none" 
	d="
M1933.705566,264.131226 
	C1926.011963,246.745728 1940.815186,230.300217 1956.259399,232.746414 
	C1966.917847,234.434616 1973.669312,241.113190 1975.194458,251.674133 
	C1976.526245,260.897125 1971.415649,269.991638 1962.667480,273.966583 
	C1953.370239,278.190979 1943.102295,275.939545 1936.421509,268.148346 
	C1935.457153,267.023621 1934.731567,265.694092 1933.705566,264.131226 
z"/>
<path fill="#F6F6F7" opacity="1.000000" stroke="none" 
	d="
M2005.189209,354.070801 
	C2005.548218,354.633575 2005.556763,355.050598 2005.013916,355.780518 
	C2002.415405,357.847321 2002.039673,359.506287 2004.740723,360.990417 
	C2004.768677,387.686676 2004.796509,414.382904 2004.776611,441.546631 
	C1997.391357,444.099976 1996.344116,442.986176 1997.696045,435.221619 
	C1998.174683,432.472626 1997.984131,429.595978 1997.989136,426.777405 
	C1998.013184,413.144135 1998.000000,399.510803 1998.000000,385.877472 
	C1998.000000,375.405914 1997.954834,364.933929 1998.044189,354.463135 
	C1998.059082,352.705566 1998.655762,350.952972 1998.983765,349.198059 
	C1999.477905,349.065582 1999.972168,348.933075 2000.466431,348.800598 
	C2001.923950,350.508728 2003.381470,352.216888 2005.189209,354.070801 
z"/>
<path fill="#141829" opacity="1.000000" stroke="none" 
	d="
M1049.332520,279.883301 
	C1048.666748,278.154114 1048.331787,276.303558 1047.774170,273.221863 
	C1048.843628,272.955994 1050.757446,272.070953 1052.674316,272.064941 
	C1081.363281,271.974976 1110.052979,272.045532 1138.742065,271.947449 
	C1142.654541,271.934082 1146.564697,271.215149 1150.985229,270.771820 
	C1150.985229,263.311707 1151.131714,255.527100 1150.800415,247.762909 
	C1150.758789,246.787231 1148.222046,245.159775 1146.802246,245.116699 
	C1129.883911,244.603394 1112.957886,244.342926 1096.034546,243.988754 
	C1093.558228,243.936935 1091.084961,243.742355 1088.311768,243.323898 
	C1108.124756,242.972336 1128.235962,242.919891 1148.347290,242.839249 
	C1151.381348,242.827087 1152.783447,244.046753 1152.715088,247.272339 
	C1152.567383,254.253006 1152.453491,261.249603 1152.772461,268.219238 
	C1152.964600,272.421051 1151.517700,273.582001 1147.403198,273.557831 
	C1120.964966,273.402527 1094.525024,273.550568 1068.086182,273.450256 
	C1061.127686,273.423859 1055.008667,275.334442 1049.332520,279.883301 
z"/>
<path fill="#030C20" opacity="1.000000" stroke="none" 
	d="
M1763.987549,363.437958 
	C1768.071777,362.404938 1765.879272,365.494263 1765.886963,366.598267 
	C1766.033325,387.571075 1765.994873,408.545227 1765.994507,429.519073 
	C1765.994507,432.348877 1766.141479,435.188477 1765.953735,438.005798 
	C1765.751587,441.039246 1766.899780,442.126495 1769.961304,442.044891 
	C1776.448486,441.872070 1782.954224,441.776886 1789.431641,442.086304 
	C1793.394043,442.275574 1794.091553,440.645569 1794.071777,437.121338 
	C1793.941772,413.984253 1793.978271,390.845978 1794.055664,367.708435 
	C1794.061768,365.869202 1794.787231,364.032410 1795.570068,362.091919 
	C1796.002197,387.588806 1795.992676,413.188599 1796.141602,438.787445 
	C1796.161865,442.282776 1794.965698,443.447083 1791.515869,443.377136 
	C1783.872437,443.222107 1776.215332,443.215057 1768.577881,443.510925 
	C1764.821289,443.656464 1763.779785,442.442932 1763.803711,438.712524 
	C1763.963867,413.776154 1763.893921,388.838257 1763.987549,363.437958 
z"/>
<path fill="#141829" opacity="1.000000" stroke="none" 
	d="
M1025.020752,412.987091 
	C1016.896179,413.571014 1015.969482,414.497070 1016.016113,422.493652 
	C1016.049622,428.243164 1016.083191,434.003082 1016.514954,439.728363 
	C1016.578430,440.569946 1018.819397,441.824310 1020.106445,441.893799 
	C1024.916260,442.153503 1029.748535,442.000977 1034.572266,442.001007 
	C1058.358643,442.001038 1082.145020,441.992523 1105.931396,442.015686 
	C1107.742920,442.017456 1109.554077,442.242035 1111.668213,442.645386 
	C1102.843018,443.052277 1093.715576,443.260315 1084.587524,443.284668 
	C1062.817139,443.342804 1041.045532,443.215637 1019.276672,443.410126 
	C1015.286255,443.445770 1014.022766,442.269714 1014.189514,438.329834 
	C1014.470337,431.694031 1014.257385,425.038025 1014.286377,418.390686 
	C1014.315369,411.745880 1014.333740,411.744751 1020.793274,411.713501 
	C1021.956421,411.707886 1023.119629,411.716736 1024.645508,412.097778 
	C1025.012329,412.646790 1025.016479,412.816925 1025.020752,412.987091 
z"/>
<path fill="#000619" opacity="1.000000" stroke="none" 
	d="
M942.781006,244.317444 
	C943.391113,245.777649 943.946838,247.519150 943.949158,249.261383 
	C943.999817,287.389465 944.002136,325.517670 943.946289,363.645752 
	C943.943787,365.344421 943.304626,367.042175 942.587402,368.859741 
	C942.230286,328.843292 942.245911,288.707458 942.273926,248.571640 
	C942.274841,247.247406 942.401062,245.923279 942.781006,244.317444 
z"/>
<path fill="#000619" opacity="1.000000" stroke="none" 
	d="
M623.372742,439.441528 
	C625.394653,441.549347 627.848206,442.228821 631.043762,442.081543 
	C637.524841,441.782928 644.036011,441.835571 650.522461,442.075684 
	C654.021484,442.205231 655.093445,441.037201 655.064575,437.539703 
	C654.917358,419.720978 654.967712,401.900116 655.065613,384.080658 
	C655.074524,382.456207 655.910339,380.836304 656.768433,379.132935 
	C657.050537,390.497498 656.885559,401.943237 656.814819,413.389526 
	C656.754456,423.151825 656.802307,432.914825 656.802307,443.293182 
	C645.901123,443.293182 635.803711,443.374420 625.713379,443.144104 
	C624.875854,443.125000 624.086426,440.999237 623.372742,439.441528 
z"/>
<path fill="#000619" opacity="1.000000" stroke="none" 
	d="
M1657.877441,367.452332 
	C1658.313354,368.875275 1658.944336,370.758179 1658.950684,372.643158 
	C1659.022339,393.911316 1659.107666,415.180847 1658.907349,436.447327 
	C1658.867432,440.680603 1659.759399,442.345245 1664.358032,442.120941 
	C1672.314331,441.732819 1680.303833,442.021912 1688.763428,442.053040 
	C1688.443359,442.517548 1687.642822,443.329590 1686.834717,443.337189 
	C1677.384521,443.426147 1667.933350,443.394196 1657.782227,443.394196 
	C1657.782227,417.940826 1657.782227,392.927032 1657.877441,367.452332 
z"/>
<path fill="#000619" opacity="1.000000" stroke="none" 
	d="
M1025.487305,412.986389 
	C1025.016479,412.816925 1025.012329,412.646790 1025.009033,412.221405 
	C1048.693115,411.878235 1072.376587,411.790375 1096.531006,412.078674 
	C1097.010132,412.638641 1097.017944,412.822388 1097.025879,413.006104 
	C1073.335205,412.999298 1049.644531,412.992523 1025.487305,412.986389 
z"/>
<path fill="#000619" opacity="1.000000" stroke="none" 
	d="
M841.575745,370.429138 
	C841.036133,369.806000 840.069092,368.721130 840.065796,367.633301 
	C840.002075,346.917999 840.050476,326.202362 840.092529,305.486816 
	C840.093201,305.177795 840.308044,304.869232 840.730225,304.273865 
	C841.114197,323.670563 841.180847,343.353912 841.280701,363.037079 
	C841.292419,365.347198 841.487122,367.656433 841.575745,370.429138 
z"/>
<path fill="#141829" opacity="1.000000" stroke="none" 
	d="
M1097.483887,413.003754 
	C1097.017944,412.822388 1097.010132,412.638641 1096.988770,412.179321 
	C1101.013672,411.755035 1105.051880,411.606323 1109.548828,411.478516 
	C1105.985596,412.000061 1101.963623,412.500732 1097.483887,413.003754 
z"/>
<path fill="#000619" opacity="1.000000" stroke="none" 
	d="
M841.141602,295.551575 
	C840.837830,289.195129 840.631287,282.378052 840.731445,275.273926 
	C841.105103,281.688263 841.171997,288.389618 841.141602,295.551575 
z"/>
<path fill="#000619" opacity="1.000000" stroke="none" 
	d="
M841.145569,267.553253 
	C840.845764,262.190125 840.644470,256.367096 840.755005,250.260849 
	C841.125916,255.682861 841.184998,261.388092 841.145569,267.553253 
z"/>
<path fill="#030C20" opacity="1.000000" stroke="none" 
	d="
M1796.432251,355.199768 
	C1796.465332,354.259613 1796.825439,353.202301 1797.541504,352.059021 
	C1797.517944,353.009552 1797.138672,354.046082 1796.432251,355.199768 
z"/>
<path fill="#141829" opacity="1.000000" stroke="none" 
	d="
M1113.725098,410.278137 
	C1113.443115,410.683746 1112.888672,411.083038 1112.179443,411.266846 
	C1112.500488,410.791504 1112.976685,410.531677 1113.725098,410.278137 
z"/>
<path fill="#141829" opacity="1.000000" stroke="none" 
	d="
M1042.243408,289.831726 
	C1041.936646,289.776581 1041.818726,289.549713 1041.700806,289.322815 
	C1041.829956,289.268311 1041.958984,289.213806 1042.303711,289.158081 
	C1042.490112,289.324585 1042.461182,289.492310 1042.243408,289.831726 
z"/>
<path fill="#000619" opacity="1.000000" stroke="none" 
	d="
M841.061096,244.737625 
	C840.851135,244.767975 840.688171,244.532745 840.646545,244.175522 
	C840.881287,244.193039 840.994690,244.332550 841.061096,244.737625 
z"/>
<path fill="#FDFDFD" opacity="1.000000" stroke="none" 
	d="
M429.692596,385.267639 
	C413.068298,361.177887 411.293640,335.782227 423.750427,310.225128 
	C436.124969,284.836670 458.123993,272.944946 485.934540,271.999908 
	C515.604004,270.991669 541.028809,286.817139 552.515320,312.703949 
	C564.603638,339.947083 559.295288,370.634277 538.802917,391.974091 
	C509.680359,422.300964 457.408844,419.212708 429.692596,385.267639 
z"/>
<path fill="#FAFAFA" opacity="1.000000" stroke="none" 
	d="
M1316.016846,368.957886 
	C1325.692383,344.317627 1335.366333,319.676758 1345.045898,295.038086 
	C1345.898315,292.868439 1346.694824,290.670074 1347.678833,288.560394 
	C1349.338013,285.003265 1351.862061,282.549164 1356.114258,282.635254 
	C1360.248901,282.718964 1362.401978,285.382233 1363.757690,288.811340 
	C1367.186768,297.485229 1370.488647,306.209290 1373.863281,314.904846 
	C1380.790283,332.753906 1387.731689,350.597382 1394.173828,368.903748 
	C1370.593872,369.395416 1347.507202,369.443817 1324.420654,369.435059 
	C1321.619385,369.433990 1318.818115,369.124451 1316.016846,368.957886 
z"/>
<path fill="#000619" opacity="1.000000" stroke="none" 
	d="
M1316.133301,369.347168 
	C1318.818115,369.124451 1321.619385,369.433990 1324.420654,369.435059 
	C1347.507202,369.443817 1370.593872,369.395416 1394.182617,369.327332 
	C1393.761841,369.861603 1392.840576,370.928528 1391.915771,370.931732 
	C1367.669312,371.015381 1343.422241,371.003296 1319.175537,370.928650 
	C1318.199097,370.925629 1317.224854,370.151367 1316.133301,369.347168 
z"/>
<path fill="#FBFBFC" opacity="1.000000" stroke="none" 
	d="
M1550.722900,417.069214 
	C1530.130737,417.874725 1513.571533,407.521729 1506.386353,389.685425 
	C1499.048218,371.468964 1503.936768,349.361847 1518.035400,337.006561 
	C1542.637817,315.446289 1581.269287,327.634308 1589.018311,359.401337 
	C1595.920776,387.697144 1578.934326,413.566589 1550.722900,417.069214 
z"/>
<path fill="#FBFBFC" opacity="1.000000" stroke="none" 
	d="
M712.976135,273.768982 
	C728.048523,277.462799 738.717712,286.018219 742.687500,301.474731 
	C748.495422,324.088745 735.826172,344.041321 712.025879,349.072540 
	C693.148865,349.196960 675.043579,349.193665 656.938232,349.190338 
	C656.938232,349.190338 656.961243,349.058929 656.861023,348.586365 
	C656.730591,327.661957 656.700378,307.210052 656.670105,286.758179 
	C657.886475,280.432434 661.015564,275.737305 668.305115,273.756958 
	C683.682129,273.621094 698.329102,273.695038 712.976135,273.768982 
z"/>
<path fill="#000619" opacity="1.000000" stroke="none" 
	d="
M656.270630,286.994934 
	C656.700378,307.210052 656.730591,327.661957 656.794312,348.585205 
	C656.224121,347.881470 655.101868,346.709564 655.094360,345.530670 
	C654.977844,327.009888 654.992676,308.488190 655.036316,289.966827 
	C655.038452,289.054474 655.580444,288.143372 656.270630,286.994934 
z"/>
<path fill="#000619" opacity="1.000000" stroke="none" 
	d="
M657.088074,349.559570 
	C675.043579,349.193665 693.148865,349.196960 711.739746,349.236511 
	C710.981873,349.847809 709.741821,350.914886 708.494507,350.923401 
	C692.260864,351.034454 676.026123,351.011536 659.791992,350.948822 
	C658.939331,350.945526 658.089233,350.283966 657.088074,349.559570 
z"/>
<path fill="#000619" opacity="1.000000" stroke="none" 
	d="
M712.855713,273.395325 
	C698.329102,273.695038 683.682129,273.621094 668.572998,273.563416 
	C669.025391,273.057190 669.936584,272.086365 670.854919,272.079559 
	C684.116577,271.980896 697.379211,271.996399 710.641357,272.054504 
	C711.340759,272.057556 712.037415,272.684967 712.855713,273.395325 
z"/>
<path fill="#FEFEFE" opacity="1.000000" stroke="none" 
	d="
M2004.870361,360.588440 
	C2002.039673,359.506287 2002.415405,357.847321 2004.830444,356.040283 
	C2005.132202,357.386932 2005.066162,358.786713 2004.870361,360.588440 
z"/>
</svg>